<svg width="155" height="59" viewBox="0 0 155 59" fill="none" xmlns="http://www.w3.org/2000/svg">
<path d="M4.11612 9.63636H9.30966L18.3395 31.6847H18.6719L27.7017 9.63636H32.8952V38H28.8235V17.4751H28.5604L20.1953 37.9585H16.8161L8.45099 17.4613H8.18786V38H4.11612V9.63636ZM39.1171 9.63636H43.355V30.4659H43.6182L58.0493 9.63636H62.0102V38H57.7307V17.1982H57.4676L43.0642 38H39.1171V9.63636ZM68.2528 38V9.63636H78.3629C80.5696 9.63636 82.3977 10.038 83.8473 10.8413C85.2969 11.6445 86.3817 12.7433 87.1019 14.1374C87.8221 15.5224 88.1822 17.0827 88.1822 18.8185C88.1822 20.5636 87.8175 22.1332 87.0881 23.5273C86.3679 24.9123 85.2784 26.011 83.8196 26.8235C82.37 27.6268 80.5465 28.0284 78.3491 28.0284H71.3967V24.3999H77.9613C79.3555 24.3999 80.4865 24.1598 81.3544 23.6797C82.2223 23.1903 82.8594 22.5256 83.2656 21.6854C83.6719 20.8452 83.875 19.8896 83.875 18.8185C83.875 17.7475 83.6719 16.7965 83.2656 15.9656C82.8594 15.1346 82.2177 14.4837 81.3406 14.0128C80.4727 13.5419 79.3278 13.3065 77.9059 13.3065H72.5323V38H68.2528ZM92.5863 38H88.0437L98.2507 9.63636H103.195L113.402 38H108.859L100.841 14.7884H100.619L92.5863 38ZM93.348 26.8928H108.084V30.4936H93.348V26.8928ZM117.498 9.63636H122.691L131.721 31.6847H132.054L141.084 9.63636H146.277V38H142.205V17.4751H141.942L133.577 37.9585H130.198L121.833 17.4613H121.57V38H117.498V9.63636Z" fill="black"/>
<path d="M49.3622 58.1264V55.5057H49.9077C50.1207 55.2585 50.3111 54.9531 50.4787 54.5895C50.6463 54.223 50.7841 53.7628 50.892 53.2088C51.0028 52.6548 51.0753 51.9759 51.1094 51.1719L51.267 47.2727H56.0696V55.5057H57.1094V58.0966H56.5895V56H49.8821V58.1264H49.3622ZM50.5554 55.5057H55.5497V47.767H51.7614L51.625 51.1719C51.5966 51.8651 51.5398 52.4773 51.4545 53.0085C51.3693 53.5369 51.2514 54.0043 51.1009 54.4105C50.9531 54.8139 50.7713 55.179 50.5554 55.5057ZM58.0469 56V55.5057H58.2173C58.4872 55.5057 58.7003 55.4588 58.8565 55.3651C59.0128 55.2685 59.1293 55.1122 59.206 54.8963C59.2855 54.6804 59.3423 54.392 59.3764 54.0312C59.4105 53.6676 59.4403 53.2173 59.4659 52.6804L59.6321 49.4545H63.5866V56H63.071V49.9489H60.1222L59.973 52.8168C59.9474 53.3452 59.9105 53.8082 59.8622 54.206C59.8168 54.6037 59.7386 54.9361 59.6278 55.2031C59.5199 55.4673 59.3565 55.6662 59.1378 55.7997C58.919 55.9332 58.6236 56 58.2514 56H58.0469ZM69.707 56V49.9361L67.8448 49.9446C67.2965 49.9446 66.8917 50.0469 66.6303 50.2514C66.3718 50.456 66.2425 50.7855 66.2425 51.2401C66.2425 51.6889 66.3704 52.0156 66.6261 52.2202C66.8817 52.4247 67.2752 52.527 67.8065 52.527H69.886V53.0213H67.8065C67.3434 53.0213 66.957 52.956 66.6474 52.8253C66.3406 52.6918 66.1104 52.4929 65.957 52.2287C65.8036 51.9645 65.7269 51.6349 65.7269 51.2401C65.7269 50.8423 65.805 50.5114 65.9613 50.2472C66.1175 49.983 66.3519 49.7855 66.6644 49.6548C66.9798 49.5213 67.3732 49.4545 67.8448 49.4545H70.2099V56H69.707ZM65.2539 56L67.163 52.7443H67.7383L65.8292 56H65.2539ZM78.2202 56.1364C77.6634 56.1364 77.1733 55.9901 76.75 55.6974C76.3267 55.402 75.9957 54.9986 75.7571 54.4872C75.5213 53.9759 75.4034 53.3963 75.4034 52.7486C75.4034 52.1009 75.5227 51.5213 75.7614 51.0099C76 50.4986 76.331 50.0952 76.7543 49.7997C77.1776 49.5043 77.6648 49.3565 78.2159 49.3565C78.6307 49.3565 79.0085 49.4418 79.3494 49.6122C79.6932 49.7827 79.9773 50.0199 80.2017 50.3239C80.429 50.6278 80.5739 50.9801 80.6364 51.3807H80.108C80.0227 50.9375 79.8097 50.571 79.4688 50.2812C79.1307 49.9886 78.7145 49.8423 78.2202 49.8423C77.777 49.8423 77.3821 49.9673 77.0355 50.2173C76.6889 50.4645 76.4162 50.8068 76.2173 51.2443C76.0185 51.679 75.919 52.1776 75.919 52.7401C75.919 53.294 76.0156 53.7912 76.2088 54.2315C76.402 54.669 76.6719 55.0156 77.0185 55.2713C77.3651 55.527 77.7656 55.6548 78.2202 55.6548C78.5412 55.6548 78.8338 55.5909 79.098 55.4631C79.3651 55.3352 79.5881 55.1534 79.767 54.9176C79.946 54.6818 80.0639 54.4062 80.1207 54.0909H80.6491C80.5866 54.4943 80.4446 54.8494 80.223 55.1562C80.0014 55.4631 79.7188 55.7031 79.375 55.8764C79.0312 56.0497 78.6463 56.1364 78.2202 56.1364ZM84.8551 56.1364C84.3153 56.1364 83.8352 55.9915 83.4148 55.7017C82.9943 55.4091 82.6634 55.0071 82.4219 54.4957C82.1804 53.9844 82.0597 53.402 82.0597 52.7486C82.0597 52.0923 82.1804 51.5099 82.4219 51.0014C82.6634 50.4901 82.9943 50.0881 83.4148 49.7955C83.8352 49.5028 84.3153 49.3565 84.8551 49.3565C85.3949 49.3565 85.875 49.5028 86.2955 49.7955C86.7159 50.0881 87.0469 50.4901 87.2884 51.0014C87.5298 51.5128 87.6506 52.0952 87.6506 52.7486C87.6506 53.402 87.5298 53.9844 87.2884 54.4957C87.0469 55.0071 86.7159 55.4091 86.2955 55.7017C85.875 55.9915 85.3949 56.1364 84.8551 56.1364ZM84.8551 55.6548C85.3125 55.6548 85.7116 55.5256 86.0526 55.267C86.3963 55.0085 86.6619 54.6591 86.8494 54.2188C87.0398 53.7784 87.1349 53.2884 87.1349 52.7486C87.1349 52.2088 87.0398 51.7202 86.8494 51.2827C86.6591 50.8423 86.3935 50.4929 86.0526 50.2344C85.7116 49.973 85.3125 49.8423 84.8551 49.8423C84.3977 49.8423 83.9986 49.973 83.6577 50.2344C83.3168 50.4929 83.0511 50.8423 82.8608 51.2827C82.6705 51.7202 82.5753 52.2088 82.5753 52.7486C82.5753 53.2884 82.669 53.7784 82.8565 54.2188C83.0469 54.6591 83.3125 55.0085 83.6534 55.267C83.9972 55.5256 84.3977 55.6548 84.8551 55.6548ZM88.5433 49.9489V49.4545H93.4524V49.9489H91.2706V56H90.7507V49.9489H88.5433ZM95.1836 58.4545V49.4545H95.6907V50.9162H95.7546C95.8569 50.6349 96.0004 50.3764 96.185 50.1406C96.3725 49.9048 96.604 49.7159 96.8796 49.5739C97.158 49.429 97.4847 49.3565 97.8597 49.3565C98.3881 49.3565 98.8484 49.5014 99.2404 49.7912C99.6325 50.081 99.9364 50.4815 100.152 50.9929C100.368 51.5014 100.476 52.0852 100.476 52.7443C100.476 53.4034 100.367 53.9886 100.148 54.5C99.9322 55.0085 99.6282 55.4091 99.2362 55.7017C98.8469 55.9915 98.391 56.1364 97.8683 56.1364C97.4961 56.1364 97.1694 56.0653 96.8881 55.9233C96.6097 55.7812 96.3754 55.5923 96.185 55.3565C95.9975 55.1179 95.854 54.8565 95.7546 54.5724H95.7035V58.4545H95.1836ZM95.695 52.7401C95.695 53.2969 95.7802 53.7955 95.9506 54.2358C96.1211 54.6733 96.3654 55.0199 96.6836 55.2756C97.0018 55.5284 97.381 55.6548 97.8214 55.6548C98.2674 55.6548 98.6495 55.527 98.9677 55.2713C99.2887 55.0128 99.533 54.6634 99.7006 54.223C99.8711 53.7827 99.9563 53.2884 99.9563 52.7401C99.9563 52.1918 99.8725 51.6989 99.7049 51.2614C99.5373 50.8239 99.2944 50.4787 98.9762 50.2259C98.658 49.9702 98.2731 49.8423 97.8214 49.8423C97.3754 49.8423 96.9933 49.9687 96.6751 50.2216C96.3597 50.4716 96.1168 50.8153 95.9464 51.2528C95.7788 51.6875 95.695 52.1832 95.695 52.7401ZM102.457 58.4545C102.326 58.4545 102.197 58.4403 102.069 58.4119C101.941 58.3835 101.826 58.3466 101.724 58.3011L101.877 57.8452C102.144 57.9474 102.386 57.9844 102.602 57.956C102.82 57.9276 103.013 57.8281 103.181 57.6577C103.349 57.4872 103.491 57.2372 103.607 56.9077L103.906 56.0895L101.506 49.4545H102.065L104.144 55.331H104.187L106.266 49.4545H106.825L104.063 57.1122C103.958 57.4077 103.826 57.6548 103.667 57.8537C103.508 58.0526 103.326 58.2017 103.121 58.3011C102.92 58.4034 102.698 58.4545 102.457 58.4545ZM107.055 57.8537V55.5057H107.638C107.786 55.3267 107.917 55.1349 108.031 54.9304C108.144 54.723 108.242 54.4943 108.325 54.2443C108.41 53.9915 108.481 53.7088 108.538 53.3963C108.597 53.081 108.644 52.7287 108.678 52.3395L108.934 49.4545H112.526V55.5057H113.464V57.8537H112.944V56H107.57V57.8537H107.055ZM108.248 55.5057H112.006V49.9489H109.411L109.19 52.3395C109.124 53.0298 109.019 53.6321 108.874 54.1463C108.729 54.6605 108.521 55.1136 108.248 55.5057ZM119.473 52.4844V52.9787H115.387V52.4844H119.473ZM115.532 49.4545V56H115.012V49.4545H115.532ZM119.827 49.4545V56H119.307V49.4545H119.827ZM122.528 55.3224L126.282 49.4545H126.942V56H126.423V50.1321L122.673 56H122.008V49.4545H122.528V55.3224ZM129.098 56V49.4545H129.618V52.4929H130.372L132.882 49.4545H133.555L130.947 52.5952L133.632 56H132.967L130.606 52.9872H129.618V56H129.098ZM137.203 56.1364C136.663 56.1364 136.183 55.9915 135.762 55.7017C135.342 55.4091 135.011 55.0071 134.77 54.4957C134.528 53.9844 134.407 53.402 134.407 52.7486C134.407 52.0923 134.528 51.5099 134.77 51.0014C135.011 50.4901 135.342 50.0881 135.762 49.7955C136.183 49.5028 136.663 49.3565 137.203 49.3565C137.743 49.3565 138.223 49.5028 138.643 49.7955C139.064 50.0881 139.395 50.4901 139.636 51.0014C139.877 51.5128 139.998 52.0952 139.998 52.7486C139.998 53.402 139.877 53.9844 139.636 54.4957C139.395 55.0071 139.064 55.4091 138.643 55.7017C138.223 55.9915 137.743 56.1364 137.203 56.1364ZM137.203 55.6548C137.66 55.6548 138.059 55.5256 138.4 55.267C138.744 55.0085 139.01 54.6591 139.197 54.2188C139.387 53.7784 139.483 53.2884 139.483 52.7486C139.483 52.2088 139.387 51.7202 139.197 51.2827C139.007 50.8423 138.741 50.4929 138.4 50.2344C138.059 49.973 137.66 49.8423 137.203 49.8423C136.745 49.8423 136.346 49.973 136.005 50.2344C135.664 50.4929 135.399 50.8423 135.208 51.2827C135.018 51.7202 134.923 52.2088 134.923 52.7486C134.923 53.2884 135.017 53.7784 135.204 54.2188C135.395 54.6591 135.66 55.0085 136.001 55.267C136.345 55.5256 136.745 55.6548 137.203 55.6548ZM141.789 56V49.4545H144.273C144.964 49.4545 145.504 49.598 145.893 49.8849C146.282 50.169 146.475 50.5597 146.472 51.0568C146.469 51.4375 146.362 51.7528 146.148 52.0028C145.935 52.25 145.638 52.4304 145.258 52.544C145.522 52.598 145.756 52.6989 145.961 52.8466C146.168 52.9943 146.332 53.1832 146.451 53.4134C146.57 53.6406 146.63 53.9062 146.63 54.2102C146.63 54.5568 146.546 54.8651 146.379 55.1349C146.211 55.402 145.975 55.6136 145.671 55.7699C145.37 55.9233 145.018 56 144.614 56H141.789ZM142.292 55.5099H144.614C145.066 55.5099 145.428 55.3878 145.701 55.1435C145.974 54.8991 146.11 54.5753 146.11 54.1719C146.11 53.777 145.987 53.456 145.739 53.2088C145.495 52.9588 145.177 52.8338 144.785 52.8338H142.292V55.5099ZM142.292 52.3651H144.363C144.684 52.3651 144.964 52.3125 145.202 52.2074C145.444 52.0994 145.63 51.9489 145.761 51.7557C145.891 51.5597 145.957 51.3338 145.957 51.0781C145.954 50.7173 145.806 50.4389 145.513 50.2429C145.224 50.044 144.81 49.9446 144.273 49.9446H142.292V52.3651Z" fill="black"/>
</svg>
