<svg width="252" height="103" viewBox="0 0 252 103" fill="none" xmlns="http://www.w3.org/2000/svg">
<path d="M40.995 12.6364H47.6534L59.2301 40.9034H59.6562L71.233 12.6364H77.8913V49H72.6712V22.6861H72.3338L61.6094 48.9467H57.277L46.5526 22.6683H46.2152V49H40.995V12.6364ZM85.8681 12.6364H91.3013V39.3409H91.6387L110.14 12.6364H115.218V49H109.732V22.331H109.394L90.9284 49H85.8681V12.6364ZM123.222 49V12.6364H136.183C139.012 12.6364 141.356 13.1513 143.214 14.1811C145.073 15.2109 146.464 16.6196 147.387 18.407C148.31 20.1825 148.772 22.183 148.772 24.4084C148.772 26.6456 148.304 28.6579 147.369 30.4453C146.446 32.2209 145.049 33.6295 143.179 34.6712C141.321 35.701 138.983 36.2159 136.165 36.2159H127.252V31.5639H135.668C137.456 31.5639 138.906 31.2562 140.018 30.6406C141.131 30.0133 141.948 29.161 142.469 28.0838C142.99 27.0066 143.25 25.7815 143.25 24.4084C143.25 23.0353 142.99 21.8161 142.469 20.7507C141.948 19.6854 141.125 18.8509 140.001 18.2472C138.888 17.6435 137.42 17.3416 135.597 17.3416H128.708V49H123.222ZM154.418 49H148.594L161.68 12.6364H168.019L181.105 49H175.281L165.001 19.2415H164.717L154.418 49ZM155.395 34.7599H174.287V39.3764H155.395V34.7599ZM186.356 12.6364H193.015L204.591 40.9034H205.018L216.594 12.6364H223.253V49H218.032V22.6861H217.695L206.971 48.9467H202.638L191.914 22.6683H191.577V49H186.356V12.6364Z" fill="black"/>
<path d="M30.7546 101.43V95.9702H31.891C32.3349 95.4553 32.7314 94.819 33.0806 94.0614C33.4298 93.2979 33.7169 92.3391 33.9418 91.185C34.1726 90.0309 34.3235 88.6164 34.3945 86.9414L34.723 78.8182H44.7283V95.9702H46.8945V101.368H45.8114V97H31.8377V101.43H30.7546ZM33.2404 95.9702H43.6452V79.848H35.7528L35.4688 86.9414C35.4096 88.3855 35.2912 89.661 35.1136 90.7678C34.9361 91.8686 34.6905 92.8422 34.3768 93.6886C34.069 94.529 33.6902 95.2895 33.2404 95.9702ZM48.8477 97V95.9702H49.2028C49.765 95.9702 50.2089 95.8725 50.5344 95.6772C50.86 95.476 51.1026 95.1504 51.2624 94.7006C51.4281 94.2508 51.5465 93.6501 51.6175 92.8984C51.6886 92.1409 51.7507 91.2028 51.804 90.0842L52.1502 83.3636H60.3888V97H59.3146V84.3935H53.1712L52.8604 90.3683C52.8072 91.4691 52.7302 92.4338 52.6296 93.2624C52.5349 94.091 52.3722 94.7835 52.1413 95.3398C51.9164 95.8903 51.5761 96.3046 51.1204 96.5827C50.6647 96.8609 50.0491 97 49.2738 97H48.8477ZM73.1396 97V84.3668L69.26 84.3846C68.1177 84.3846 67.2744 84.5977 66.7298 85.0238C66.1913 85.4499 65.922 86.1365 65.922 87.0835C65.922 88.0186 66.1883 88.6992 66.721 89.1254C67.2536 89.5515 68.0734 89.7646 69.1801 89.7646H73.5125V90.7944H69.1801C68.2154 90.7944 67.4105 90.6583 66.7654 90.386C66.1262 90.1078 65.6468 89.6935 65.3271 89.1431C65.0075 88.5927 64.8477 87.9061 64.8477 87.0835C64.8477 86.2549 65.0105 85.5653 65.336 85.0149C65.6615 84.4645 66.1498 84.0531 66.8009 83.7809C67.4578 83.5027 68.2776 83.3636 69.26 83.3636H74.1872V97H73.1396ZM63.8623 97L67.8396 90.2173H69.0381L65.0608 97H63.8623ZM90.8754 97.2841C89.7153 97.2841 88.6944 96.9793 87.8125 96.3697C86.9306 95.7541 86.2411 94.9137 85.744 93.8484C85.2527 92.783 85.0071 91.5756 85.0071 90.2262C85.0071 88.8768 85.2557 87.6694 85.7528 86.604C86.25 85.5387 86.9395 84.6983 87.8214 84.0827C88.7032 83.4672 89.7183 83.1594 90.8665 83.1594C91.7306 83.1594 92.5178 83.337 93.228 83.6921C93.9441 84.0472 94.536 84.5414 95.0036 85.1747C95.477 85.808 95.7789 86.5419 95.9091 87.3764H94.8082C94.6307 86.4531 94.1868 85.6896 93.4766 85.0859C92.7723 84.4763 91.9052 84.1715 90.8754 84.1715C89.9521 84.1715 89.1294 84.4319 88.4073 84.9528C87.6853 85.4677 87.1171 86.1809 86.7028 87.0923C86.2885 87.9979 86.0813 89.0366 86.0813 90.2085C86.0813 91.3626 86.2826 92.3983 86.685 93.3157C87.0875 94.2272 87.6497 94.9492 88.3718 95.4819C89.0939 96.0146 89.9284 96.2809 90.8754 96.2809C91.5442 96.2809 92.1538 96.1477 92.7042 95.8814C93.2605 95.6151 93.7251 95.2363 94.098 94.745C94.4709 94.2538 94.7165 93.6797 94.8349 93.0227H95.9357C95.8055 93.8632 95.5096 94.603 95.0479 95.2422C94.5863 95.8814 93.9974 96.3815 93.2812 96.7425C92.5651 97.1036 91.7631 97.2841 90.8754 97.2841ZM104.698 97.2841C103.574 97.2841 102.573 96.9822 101.697 96.3786C100.821 95.7689 100.132 94.9315 99.6289 93.8661C99.1258 92.8008 98.8743 91.5875 98.8743 90.2262C98.8743 88.859 99.1258 87.6457 99.6289 86.5863C100.132 85.521 100.821 84.6835 101.697 84.0739C102.573 83.4643 103.574 83.1594 104.698 83.1594C105.823 83.1594 106.823 83.4643 107.699 84.0739C108.575 84.6835 109.264 85.521 109.767 86.5863C110.27 87.6516 110.522 88.8649 110.522 90.2262C110.522 91.5875 110.27 92.8008 109.767 93.8661C109.264 94.9315 108.575 95.7689 107.699 96.3786C106.823 96.9822 105.823 97.2841 104.698 97.2841ZM104.698 96.2809C105.651 96.2809 106.483 96.0116 107.193 95.473C107.909 94.9344 108.462 94.2064 108.853 93.2891C109.25 92.3717 109.448 91.3507 109.448 90.2262C109.448 89.1017 109.25 88.0837 108.853 87.1722C108.456 86.2549 107.903 85.5269 107.193 84.9883C106.483 84.4438 105.651 84.1715 104.698 84.1715C103.745 84.1715 102.914 84.4438 102.203 84.9883C101.493 85.5269 100.94 86.2549 100.543 87.1722C100.147 88.0837 99.9485 89.1017 99.9485 90.2262C99.9485 91.3507 100.144 92.3717 100.534 93.2891C100.931 94.2064 101.484 94.9344 102.195 95.473C102.911 96.0116 103.745 96.2809 104.698 96.2809ZM112.382 84.3935V83.3636H122.609V84.3935H118.064V97H116.981V84.3935H112.382ZM126.216 102.114V83.3636H127.272V86.4087H127.405C127.619 85.8228 127.917 85.2842 128.302 84.793C128.693 84.3017 129.175 83.9081 129.749 83.6122C130.329 83.3104 131.01 83.1594 131.791 83.1594C132.892 83.1594 133.851 83.4613 134.668 84.065C135.484 84.6687 136.118 85.5032 136.567 86.5685C137.017 87.628 137.242 88.8442 137.242 90.2173C137.242 91.5904 137.014 92.8097 136.559 93.875C136.109 94.9344 135.475 95.7689 134.659 96.3786C133.848 96.9822 132.898 97.2841 131.809 97.2841C131.034 97.2841 130.353 97.1361 129.767 96.8402C129.187 96.5443 128.699 96.1507 128.302 95.6594C127.911 95.1623 127.613 94.6178 127.405 94.0259H127.299V102.114H126.216ZM127.281 90.2085C127.281 91.3685 127.459 92.4072 127.814 93.3246C128.169 94.236 128.678 94.9581 129.341 95.4908C130.004 96.0175 130.794 96.2809 131.711 96.2809C132.64 96.2809 133.436 96.0146 134.099 95.4819C134.768 94.9433 135.277 94.2153 135.626 93.2979C135.981 92.3806 136.159 91.3507 136.159 90.2085C136.159 89.0662 135.984 88.0393 135.635 87.1278C135.286 86.2164 134.78 85.4973 134.117 84.9705C133.454 84.4379 132.652 84.1715 131.711 84.1715C130.782 84.1715 129.986 84.4349 129.323 84.9616C128.666 85.4825 128.16 86.1986 127.805 87.1101C127.456 88.0156 127.281 89.0484 127.281 90.2085ZM141.368 102.114C141.096 102.114 140.827 102.084 140.56 102.025C140.294 101.966 140.054 101.889 139.841 101.794L140.161 100.844C140.717 101.057 141.22 101.134 141.67 101.075C142.126 101.016 142.528 100.809 142.877 100.453C143.227 100.098 143.522 99.5775 143.765 98.891L144.387 97.1864L139.388 83.3636H140.551L144.884 95.6062H144.972L149.305 83.3636H150.468L144.715 99.3171C144.496 99.9326 144.221 100.448 143.889 100.862C143.558 101.276 143.179 101.587 142.753 101.794C142.333 102.007 141.871 102.114 141.368 102.114ZM150.947 100.862V95.9702H152.164C152.471 95.5973 152.744 95.1978 152.98 94.7717C153.217 94.3396 153.421 93.8632 153.593 93.3423C153.77 92.8156 153.918 92.2267 154.037 91.5756C154.161 90.9187 154.259 90.1848 154.33 89.3739L154.862 83.3636H162.346V95.9702H164.3V100.862H163.216V97H152.021V100.862H150.947ZM153.433 95.9702H161.263V84.3935H155.857L155.395 89.3739C155.259 90.8121 155.04 92.0669 154.738 93.1381C154.436 94.2094 154.001 95.1534 153.433 95.9702ZM176.82 89.6758V90.7056H168.306V89.6758H176.82ZM168.608 83.3636V97H167.524V83.3636H168.608ZM177.556 83.3636V97H176.473V83.3636H177.556ZM183.183 95.5884L191.004 83.3636H192.38V97H191.297V84.7752L183.485 97H182.1V83.3636H183.183V95.5884ZM196.87 97V83.3636H197.953V89.6935H199.525L204.754 83.3636H206.156L200.723 89.9066L206.316 97H204.931L200.013 90.7234H197.953V97H196.87ZM213.756 97.2841C212.631 97.2841 211.631 96.9822 210.755 96.3786C209.879 95.7689 209.19 94.9315 208.687 93.8661C208.183 92.8008 207.932 91.5875 207.932 90.2262C207.932 88.859 208.183 87.6457 208.687 86.5863C209.19 85.521 209.879 84.6835 210.755 84.0739C211.631 83.4643 212.631 83.1594 213.756 83.1594C214.88 83.1594 215.881 83.4643 216.756 84.0739C217.632 84.6835 218.322 85.521 218.825 86.5863C219.328 87.6516 219.58 88.8649 219.58 90.2262C219.58 91.5875 219.328 92.8008 218.825 93.8661C218.322 94.9315 217.632 95.7689 216.756 96.3786C215.881 96.9822 214.88 97.2841 213.756 97.2841ZM213.756 96.2809C214.709 96.2809 215.54 96.0116 216.25 95.473C216.967 94.9344 217.52 94.2064 217.911 93.2891C218.307 92.3717 218.505 91.3507 218.505 90.2262C218.505 89.1017 218.307 88.0837 217.911 87.1722C217.514 86.2549 216.961 85.5269 216.25 84.9883C215.54 84.4438 214.709 84.1715 213.756 84.1715C212.803 84.1715 211.971 84.4438 211.261 84.9883C210.551 85.5269 209.997 86.2549 209.601 87.1722C209.204 88.0837 209.006 89.1017 209.006 90.2262C209.006 91.3507 209.201 92.3717 209.592 93.2891C209.989 94.2064 210.542 94.9344 211.252 95.473C211.968 96.0116 212.803 96.2809 213.756 96.2809ZM223.311 97V83.3636H228.486C229.925 83.3636 231.049 83.6625 231.86 84.2603C232.671 84.8522 233.073 85.666 233.067 86.7017C233.061 87.4948 232.836 88.1518 232.393 88.6726C231.949 89.1875 231.33 89.5633 230.537 89.8001C231.088 89.9125 231.576 90.1226 232.002 90.4304C232.434 90.7382 232.774 91.1317 233.023 91.6112C233.271 92.0846 233.396 92.638 233.396 93.2713C233.396 93.9934 233.221 94.6355 232.872 95.1978C232.523 95.7541 232.032 96.1951 231.398 96.5206C230.771 96.8402 230.037 97 229.197 97H223.311ZM224.358 95.979H229.197C230.138 95.979 230.892 95.7246 231.46 95.2156C232.029 94.7066 232.313 94.0318 232.313 93.1914C232.313 92.3687 232.055 91.6999 231.54 91.185C231.031 90.6642 230.368 90.4038 229.552 90.4038H224.358V95.979ZM224.358 89.4272H228.673C229.342 89.4272 229.925 89.3177 230.422 89.0987C230.925 88.8738 231.312 88.5601 231.585 88.1577C231.857 87.7493 231.993 87.2788 231.993 86.7461C231.987 85.9944 231.679 85.4144 231.07 85.006C230.466 84.5917 229.605 84.3846 228.486 84.3846H224.358V89.4272Z" fill="black"/>
</svg>
